<svg width="24" height="25" viewBox="0 0 24 25" fill="none" xmlns="http://www.w3.org/2000/svg">
<g id="Icon / Youtube">
<path id="Vector" d="M21.5933 7.30359C21.4794 6.881 21.2568 6.4956 20.9477 6.18576C20.6386 5.87592 20.2537 5.65245 19.8313 5.53759C18.2653 5.10759 12.0003 5.10059 12.0003 5.10059C12.0003 5.10059 5.73633 5.09359 4.16933 5.50459C3.74725 5.62474 3.36315 5.85137 3.0539 6.16273C2.74464 6.47409 2.52062 6.85971 2.40333 7.28259C1.99033 8.84859 1.98633 12.0966 1.98633 12.0966C1.98633 12.0966 1.98233 15.3606 2.39233 16.9106C2.62233 17.7676 3.29733 18.4446 4.15533 18.6756C5.73733 19.1056 11.9853 19.1126 11.9853 19.1126C11.9853 19.1126 18.2503 19.1196 19.8163 18.7096C20.2388 18.5949 20.6241 18.372 20.934 18.0628C21.2439 17.7536 21.4677 17.3688 21.5833 16.9466C21.9973 15.3816 22.0003 12.1346 22.0003 12.1346C22.0003 12.1346 22.0203 8.86959 21.5933 7.30359ZM9.99633 15.1056L10.0013 9.10559L15.2083 12.1106L9.99633 15.1056Z" fill="white"/>
</g>
</svg>
