<svg width="24" height="25" viewBox="0 0 24 25" fill="none" xmlns="http://www.w3.org/2000/svg">
<g id="Icon / Twitter">
<path id="Vector" d="M20.9727 6.81799C20.5083 7.43751 19.9469 7.97792 19.3102 8.41835C19.3102 8.58018 19.3102 8.74201 19.3102 8.91284C19.3153 11.8517 18.1414 14.6697 16.0517 16.7351C13.9619 18.8005 11.1311 19.9405 8.19393 19.8995C6.49587 19.9052 4.81955 19.5175 3.2963 18.7667C3.21416 18.7308 3.16119 18.6496 3.1615 18.5599V18.461C3.1615 18.3319 3.26611 18.2273 3.39515 18.2273C5.0643 18.1722 6.6739 17.5935 7.99622 16.573C6.48541 16.5425 5.12607 15.6475 4.50048 14.2713C4.46889 14.1962 4.47872 14.1099 4.52645 14.0438C4.57417 13.9777 4.65288 13.9413 4.73413 13.9477C5.1933 13.9938 5.65706 13.9511 6.10008 13.8218C4.43227 13.4756 3.17909 12.091 2.99974 10.3963C2.99337 10.315 3.0298 10.2363 3.09588 10.1885C3.16195 10.1408 3.24812 10.1309 3.32326 10.1626C3.77082 10.3601 4.25397 10.4641 4.74312 10.4682C3.28172 9.50905 2.65049 7.68464 3.20643 6.02681C3.26382 5.86572 3.40169 5.74671 3.56938 5.71353C3.73706 5.68034 3.90984 5.73787 4.0242 5.86498C5.99627 7.96384 8.70592 9.21455 11.5818 9.35338C11.5082 9.05944 11.472 8.75735 11.474 8.45431C11.5009 6.86531 12.4841 5.4498 13.9633 4.87046C15.4424 4.29113 17.1248 4.66262 18.2229 5.81103C18.9713 5.66844 19.6949 5.41704 20.3706 5.0648C20.4201 5.0339 20.4829 5.0339 20.5324 5.0648C20.5633 5.11432 20.5633 5.17711 20.5324 5.22663C20.2051 5.97611 19.6522 6.60471 18.9508 7.02478C19.565 6.95355 20.1684 6.80866 20.7481 6.59323C20.7969 6.56001 20.861 6.56001 20.9098 6.59323C20.9507 6.61193 20.9813 6.6477 20.9934 6.69101C21.0055 6.73432 20.9979 6.78077 20.9727 6.81799Z" fill="white"/>
</g>
</svg>
