<svg width="24" height="25" viewBox="0 0 24 25" fill="none" xmlns="http://www.w3.org/2000/svg">
<g id="Icon / Instagram">
<path id="Vector" fill-rule="evenodd" clip-rule="evenodd" d="M16 3.10059H8C5.23858 3.10059 3 5.33917 3 8.10059V16.1006C3 18.862 5.23858 21.1006 8 21.1006H16C18.7614 21.1006 21 18.862 21 16.1006V8.10059C21 5.33917 18.7614 3.10059 16 3.10059ZM19.25 16.1006C19.2445 17.8932 17.7926 19.3451 16 19.3506H8C6.20735 19.3451 4.75549 17.8932 4.75 16.1006V8.10059C4.75549 6.30794 6.20735 4.85608 8 4.85059H16C17.7926 4.85608 19.2445 6.30794 19.25 8.10059V16.1006ZM16.75 8.35059C17.3023 8.35059 17.75 7.90287 17.75 7.35059C17.75 6.79831 17.3023 6.35059 16.75 6.35059C16.1977 6.35059 15.75 6.79831 15.75 7.35059C15.75 7.90287 16.1977 8.35059 16.75 8.35059ZM12 7.60059C9.51472 7.60059 7.5 9.61531 7.5 12.1006C7.5 14.5859 9.51472 16.6006 12 16.6006C14.4853 16.6006 16.5 14.5859 16.5 12.1006C16.5027 10.9063 16.0294 9.76016 15.1849 8.91567C14.3404 8.07118 13.1943 7.59793 12 7.60059ZM9.25 12.1006C9.25 13.6194 10.4812 14.8506 12 14.8506C13.5188 14.8506 14.75 13.6194 14.75 12.1006C14.75 10.5818 13.5188 9.35059 12 9.35059C10.4812 9.35059 9.25 10.5818 9.25 12.1006Z" fill="white"/>
</g>
</svg>
