<svg width="24" height="25" viewBox="0 0 24 25" fill="none" xmlns="http://www.w3.org/2000/svg">
<g id="Icon / LinkedIn">
<path id="Vector" fill-rule="evenodd" clip-rule="evenodd" d="M5 3.10059H19C20.1046 3.10059 21 3.99602 21 5.10059V19.1006C21 20.2052 20.1046 21.1006 19 21.1006H5C3.89543 21.1006 3 20.2052 3 19.1006V5.10059C3 3.99602 3.89543 3.10059 5 3.10059ZM8 18.1006C8.27614 18.1006 8.5 17.8767 8.5 17.6006V10.6006C8.5 10.3245 8.27614 10.1006 8 10.1006H6.5C6.22386 10.1006 6 10.3245 6 10.6006V17.6006C6 17.8767 6.22386 18.1006 6.5 18.1006H8ZM7.25 9.10059C6.42157 9.10059 5.75 8.42902 5.75 7.60059C5.75 6.77216 6.42157 6.10059 7.25 6.10059C8.07843 6.10059 8.75 6.77216 8.75 7.60059C8.75 8.42902 8.07843 9.10059 7.25 9.10059ZM17.5 18.1006C17.7761 18.1006 18 17.8767 18 17.6006V13.0006C18.0325 11.4114 16.8576 10.0551 15.28 9.86059C14.177 9.75984 13.1083 10.275 12.5 11.2006V10.6006C12.5 10.3245 12.2761 10.1006 12 10.1006H10.5C10.2239 10.1006 10 10.3245 10 10.6006V17.6006C10 17.8767 10.2239 18.1006 10.5 18.1006H12C12.2761 18.1006 12.5 17.8767 12.5 17.6006V13.8506C12.5 13.0222 13.1716 12.3506 14 12.3506C14.8284 12.3506 15.5 13.0222 15.5 13.8506V17.6006C15.5 17.8767 15.7239 18.1006 16 18.1006H17.5Z" fill="white"/>
</g>
</svg>
