<svg width="24" height="25" viewBox="0 0 24 25" fill="none" xmlns="http://www.w3.org/2000/svg">
<g id="Icon / Facebook">
<path id="Vector" d="M16.5 6.10059H13.5C12.9477 6.10059 12.5 6.54831 12.5 7.10059V10.1006H16.5C16.6137 10.0981 16.7216 10.151 16.7892 10.2425C16.8568 10.334 16.8758 10.4526 16.84 10.5606L16.1 12.7606C16.0318 12.9625 15.8431 13.099 15.63 13.1006H12.5V20.6006C12.5 20.8767 12.2761 21.1006 12 21.1006H9.5C9.22386 21.1006 9 20.8767 9 20.6006V13.1006H7.5C7.22386 13.1006 7 12.8767 7 12.6006V10.6006C7 10.3245 7.22386 10.1006 7.5 10.1006H9V7.10059C9 4.89145 10.7909 3.10059 13 3.10059H16.5C16.7761 3.10059 17 3.32445 17 3.60059V5.60059C17 5.87673 16.7761 6.10059 16.5 6.10059Z" fill="white"/>
</g>
</svg>
