<svg width="32" height="33" viewBox="0 0 32 33" fill="none" xmlns="http://www.w3.org/2000/svg">
<g id="Plus">
<path id="Vector" d="M25.3336 16.4937V17.1603C25.3336 17.5285 25.0352 17.827 24.667 17.827H17.0003V25.4937C17.0003 25.8618 16.7018 26.1603 16.3336 26.1603H15.667C15.2988 26.1603 15.0003 25.8618 15.0003 25.4937V17.827H7.33366C6.96547 17.827 6.66699 17.5285 6.66699 17.1603V16.4937C6.66699 16.1255 6.96547 15.827 7.33366 15.827H15.0003V8.16031C15.0003 7.79212 15.2988 7.49365 15.667 7.49365H16.3336C16.7018 7.49365 17.0003 7.79212 17.0003 8.16031V15.827H24.667C25.0352 15.827 25.3336 16.1255 25.3336 16.4937Z" fill="#1C1C57"/>
</g>
</svg>
