<svg width="20" height="20" viewBox="0 0 20 20" fill="none" xmlns="http://www.w3.org/2000/svg">
<path id="Vector" d="M9.07088 1.27641C9.41462 0.459947 10.5854 0.459948 10.9291 1.27641L12.9579 6.0953C13.1029 6.4395 13.4306 6.67467 13.8067 6.70446L19.0727 7.12154C19.9649 7.19221 20.3267 8.2922 19.6469 8.86746L15.6348 12.2627C15.3482 12.5053 15.223 12.8858 15.3106 13.2484L16.5363 18.3251C16.744 19.1852 15.7969 19.8651 15.033 19.4042L10.5245 16.6836C10.2025 16.4893 9.7975 16.4893 9.47548 16.6836L4.96699 19.4042C4.20311 19.8651 3.25596 19.1852 3.46363 18.3251L4.68942 13.2484C4.77698 12.8858 4.65182 12.5053 4.36526 12.2627L0.353062 8.86746C-0.326718 8.2922 0.0350679 7.19221 0.927291 7.12154L6.19336 6.70446C6.5695 6.67467 6.89716 6.4395 7.04207 6.0953L9.07088 1.27641Z" fill="white"/>
</svg>
