<svg width="120" height="49" viewBox="0 0 120 49" fill="none" xmlns="http://www.w3.org/2000/svg">
<g id="Webflow / Black">
<path id="Vector" d="M39.8036 21.0066C39.8036 18.9594 37.8185 16.7877 34.3769 16.7877C30.5105 16.7877 26.2697 19.6182 25.6133 25.2742C24.9508 30.9925 28.5109 33.5193 32.0881 33.5193C35.664 33.5193 37.5465 32.1259 39.4583 30.2581C37.8076 28.1791 35.6786 29.1466 35.276 29.3492C34.8307 29.5724 34.2463 29.8811 33.0592 29.8811C31.6732 29.8811 30.2677 29.254 30.2677 26.6809C39.1276 25.8318 39.8036 23.055 39.8036 21.0066ZM35.4127 21.3494C35.3553 21.9801 35.0966 23.0721 30.6131 23.6724C31.5586 20.3148 33.3618 20.0659 34.195 20.0659C34.9759 20.0659 35.4736 20.671 35.4127 21.3494ZM20.4062 21.8947C20.4062 21.8947 18.5006 27.8705 18.3529 28.3719C18.3017 27.8705 16.9072 17.1366 16.9072 17.1366C13.6618 17.1366 11.9257 19.4425 11.0107 21.8923C11.0107 21.8923 8.69265 27.8851 8.50478 28.3866C8.49382 27.9168 8.14853 21.9546 8.14853 21.9546C7.9521 18.9581 5.2168 17.1439 3 17.1439L5.66578 33.4058C9.07088 33.3948 10.8936 31.0926 11.855 28.6476C11.855 28.6476 13.8937 23.36 13.9779 23.1197C13.9986 23.349 15.4444 33.4058 15.4444 33.4058C18.8519 33.4058 20.6905 31.25 21.68 28.8929L26.4613 17.1439C23.094 17.1439 21.3212 19.4437 20.4062 21.8947ZM52.3186 16.7657C50.2239 16.7657 48.6097 17.904 47.2507 19.5864L47.2531 19.5742L48.461 9.80298C45.6719 9.80298 43.3929 12.2309 42.9598 15.8324L40.8382 33.2789C42.4474 33.2789 44.1517 32.8116 45.0716 31.6294C45.8952 32.6871 47.1189 33.5302 48.9306 33.5302C53.6339 33.5302 56.867 28.0632 56.867 22.9305C56.867 18.2469 54.5879 16.7657 52.3186 16.7657ZM51.8868 25.1474C51.3988 28.0169 49.8042 29.9518 48.2596 29.9518C46.7029 29.9518 46.0453 29.2638 46.0453 29.2638C46.3356 26.7554 46.5284 25.2169 47.0957 23.892C47.6618 22.567 49.0002 20.4527 50.4007 20.4527C51.7623 20.4527 52.3748 22.2791 51.8868 25.1474ZM68.6574 17.1452H65.3645L65.3803 16.9731C65.6048 14.8234 66.1197 13.6949 67.7863 13.5216C68.9245 13.4046 69.4394 12.8128 69.559 12.1735C69.6529 11.6721 69.9713 9.89935 69.9713 9.89935C63.3661 9.86155 61.2957 12.7128 60.7674 17.0463L60.7552 17.1439L60.6905 17.1464C59.6181 17.1464 58.4408 18.3603 58.2346 19.9024L58.1627 20.4697H60.3587L58.5152 35.7312L57.9565 38.4738L58.1833 38.4811C61.2664 38.364 63.2502 35.9325 63.6882 32.3919L65.1278 20.4697H66.16C67.1702 20.4697 68.3573 19.4571 68.5769 17.7649L68.6574 17.1452ZM85.7453 16.8621C81.951 16.8621 78.375 19.6548 77.2755 24.0481C76.1775 28.4403 77.847 33.6266 83.4232 33.6266C89.0017 33.6266 92.2065 28.2206 92.2065 23.7321C92.2065 19.2411 89.1713 16.8621 85.7453 16.8621ZM87.2835 25.0168C87.087 27.0091 86.2087 30.0189 83.808 30.0189C81.3968 30.0189 81.7395 26.487 81.9727 24.8106C82.2233 23.0135 83.2327 20.4697 85.3815 20.4697C87.3225 20.4697 87.5055 22.767 87.2835 25.0168ZM110.944 21.8947C110.944 21.8947 109.038 27.8705 108.892 28.3719C108.839 27.8705 107.445 17.1366 107.445 17.1366C104.2 17.1366 102.464 19.4425 101.548 21.8923C101.548 21.8923 99.2318 27.8851 99.0435 28.3866C99.0322 27.9168 98.6872 21.9546 98.6872 21.9546C98.4907 18.9581 95.754 17.1439 93.5385 17.1439L96.2032 33.4058C99.6082 33.3948 101.432 31.0926 102.394 28.6476C102.394 28.6476 104.432 23.36 104.516 23.1197C104.537 23.349 105.982 33.4058 105.982 33.4058C109.39 33.4058 111.228 31.25 112.217 28.8929L117 17.1439C113.632 17.1439 111.859 19.4437 110.944 21.8947ZM71.7563 9.89935L68.9917 32.1967L68.9843 32.193L68.4231 34.9503L68.6488 34.9576C71.6257 34.921 73.7376 32.309 74.1353 29.0148L75.732 16.2167C76.2165 12.3187 73.8926 9.89935 71.7563 9.89935Z" fill="white"/>
</g>
</svg>
